<svg width="35" height="35" viewBox="0 0 35 35" fill="none" xmlns="http://www.w3.org/2000/svg">
<path d="M17.3541 32.0834L23.9896 14.5834H27.0521L33.6875 32.0834H30.625L29.0573 27.6355H21.9844L20.4166 32.0834H17.3541ZM5.83331 27.7084L3.79165 25.6667L11.1562 18.3022C10.3055 17.4515 9.53359 16.4792 8.8404 15.3855C8.1472 14.2917 7.50942 13.0522 6.92706 11.6667H9.98956C10.4757 12.6147 10.9618 13.4411 11.4479 14.1459C11.934 14.8508 12.5173 15.5556 13.1979 16.2605C14 15.4584 14.8327 14.334 15.696 12.8874C16.5594 11.4407 17.2093 10.0616 17.6458 8.75008H1.45831V5.83341H11.6666V2.91675H14.5833V5.83341H24.7916V8.75008H20.5625C20.0521 10.5001 19.2864 12.2987 18.2656 14.1459C17.2448 15.9931 16.2361 17.4029 15.2396 18.3751L18.7396 21.948L17.6458 24.9376L13.1979 20.3803L5.83331 27.7084ZM22.8958 25.0834H28.1458L25.5208 17.6459L22.8958 25.0834Z" fill="white"/>
</svg>
