<svg width="36" height="35" viewBox="0 0 36 35" fill="none" xmlns="http://www.w3.org/2000/svg">
<path d="M8.95104 20.863L6.36687 18.2745L3.78125 20.863M27.049 14.1853L29.6331 16.7753L32.2188 14.1853" stroke="white" stroke-width="2.9375" stroke-linecap="round" stroke-linejoin="round"/>
<path d="M29.6331 16.7751C29.6331 13.6835 28.4081 10.7216 26.2265 8.53555C25.1469 7.45385 23.8647 6.59566 22.4531 6.0101C21.0415 5.42454 19.5282 5.1231 18 5.12305C16.5155 5.12187 15.0448 5.4076 13.6688 5.96451C12.1326 6.58041 10.7455 7.51687 9.60006 8.71139C8.45458 9.90591 7.57706 11.331 7.02605 12.8916M6.36688 18.2728C6.36912 20.9774 7.31094 23.5972 9.03126 25.6841C10.7497 27.7685 13.1406 29.1893 15.7929 29.7021C18.4452 30.215 21.1934 29.7879 23.565 28.4943C25.9365 27.1981 27.7844 25.1187 28.7931 22.6114" stroke="white" stroke-width="2.9375" stroke-linecap="round" stroke-linejoin="round"/>
<path d="M14.4709 20.3847C14.5468 21.2504 14.9586 22.052 15.6182 22.6179C16.2779 23.1837 17.1328 23.4689 18 23.4122C20.8467 23.4122 21.5292 21.7745 21.5292 20.3847C21.5292 18.9949 20.3523 17.522 18 17.522C15.6477 17.522 14.4709 16.5915 14.4709 14.6957C14.5035 14.0388 14.7355 13.4074 15.1359 12.8855C15.5363 12.3637 16.0862 11.9762 16.7123 11.7747C17.1279 11.6405 17.5654 11.5924 18 11.6332C18.8683 11.5955 19.7181 11.8919 20.3746 12.4616C21.031 13.0312 21.4442 13.8307 21.5292 14.6957M18 25.1767V23.644M18 9.86279V11.6274" stroke="white" stroke-width="2.9375" stroke-linecap="round" stroke-linejoin="round"/>
</svg>
