<svg width="35" height="35" viewBox="0 0 35 35" fill="none" xmlns="http://www.w3.org/2000/svg">
<path d="M23.081 27.4005C23.3532 27.4005 23.5851 27.3048 23.7766 27.1132C23.9672 26.9227 24.0625 26.6913 24.0625 26.4191C24.0625 26.1459 23.9672 25.914 23.7766 25.7235C23.5861 25.5319 23.3542 25.4362 23.081 25.4362C22.8078 25.4362 22.576 25.5319 22.3854 25.7235C22.1948 25.915 22.0996 26.1469 22.0996 26.4191C22.0996 26.6913 22.1948 26.9227 22.3854 27.1132C22.576 27.3048 22.8078 27.4005 23.081 27.4005ZM26.25 27.4005C26.5222 27.4005 26.7541 27.3048 26.9456 27.1132C27.1362 26.9227 27.2314 26.6913 27.2314 26.4191C27.2314 26.1459 27.1362 25.914 26.9456 25.7235C26.7551 25.5319 26.5232 25.4362 26.25 25.4362C25.9768 25.4362 25.7449 25.5319 25.5544 25.7235C25.3638 25.915 25.2685 26.1469 25.2685 26.4191C25.2685 26.6913 25.3638 26.9227 25.5544 27.1132C25.7449 27.3048 25.9768 27.4005 26.25 27.4005ZM29.4189 27.4005C29.6912 27.4005 29.923 27.3048 30.1146 27.1132C30.3051 26.9227 30.4004 26.6913 30.4004 26.4191C30.4004 26.1459 30.3051 25.914 30.1146 25.7235C29.924 25.5319 29.6921 25.4362 29.4189 25.4362C29.1457 25.4362 28.9139 25.5319 28.7233 25.7235C28.5328 25.915 28.4375 26.1469 28.4375 26.4191C28.4375 26.6913 28.5328 26.9227 28.7233 27.1132C28.9139 27.3048 29.1457 27.4005 29.4189 27.4005ZM8.18998 29.1666C7.53665 29.1666 6.98054 28.9371 6.52165 28.4783C6.06276 28.0194 5.83331 27.4637 5.83331 26.8114V8.18846C5.83331 7.53707 6.06276 6.98145 6.52165 6.52159C6.98054 6.0627 7.53665 5.83325 8.18998 5.83325H26.8114C27.4628 5.83325 28.0185 6.0627 28.4783 6.52159C28.9372 6.98047 29.1666 7.53659 29.1666 8.18992V16.867C28.911 16.7785 28.666 16.7066 28.4316 16.6512C28.1983 16.5967 27.9572 16.5423 27.7083 16.4878V8.18992C27.7083 7.96534 27.615 7.75922 27.4283 7.57159C27.2416 7.38395 27.0355 7.29061 26.81 7.29159H8.18998C7.9654 7.29159 7.75929 7.38492 7.57165 7.57159C7.38401 7.75825 7.29067 7.96436 7.29165 8.18992V26.8114C7.29165 27.035 7.38498 27.2406 7.57165 27.4283C7.75831 27.6159 7.96394 27.7092 8.18852 27.7083H16.4514C16.4864 27.9805 16.5316 28.2337 16.5871 28.468C16.6425 28.7014 16.7139 28.9342 16.8014 29.1666H8.18998ZM7.29165 26.2499V27.7083V7.29159V16.4878V16.3785V26.2499ZM10.9375 23.727H16.7125C16.766 23.4771 16.8389 23.2355 16.9312 23.0022L17.2229 22.2672H10.9375V23.727ZM10.9375 18.2291H20.5333C21.0126 17.8927 21.4846 17.6078 21.9494 17.3745C22.4141 17.1402 22.9128 16.9564 23.4456 16.8233V16.7708H10.9375V18.2291ZM10.9375 12.7312H24.0625V11.2728H10.9375V12.7312ZM26.25 32.2539C24.6254 32.2539 23.2473 31.6876 22.1156 30.5549C20.983 29.4223 20.4166 28.0437 20.4166 26.4191C20.4166 24.7945 20.983 23.4159 22.1156 22.2833C23.2482 21.1506 24.6264 20.5848 26.25 20.5858C27.8736 20.5867 29.2522 21.1526 30.3858 22.2833C31.5194 23.4139 32.0853 24.7926 32.0833 26.4191C32.0833 28.0427 31.5175 29.4208 30.3858 30.5535C29.2522 31.6861 27.8736 32.2524 26.25 32.2524" fill="white"/>
</svg>
