<svg width="50" height="50" viewBox="0 0 50 50" fill="none" xmlns="http://www.w3.org/2000/svg">
<path opacity="0.1" d="M42 0H8C3.58172 0 0 3.58172 0 8V42C0 46.4183 3.58172 50 8 50H42C46.4183 50 50 46.4183 50 42V8C50 3.58172 46.4183 0 42 0Z" fill="#6490B3"/>
<path d="M29.1547 14.2003C29.1551 13.4202 28.9383 12.6554 28.5284 11.9916C28.1186 11.3278 27.532 10.7912 26.8343 10.4421C26.1367 10.093 25.3556 9.94506 24.5786 10.0149C23.8016 10.0848 23.0594 10.3697 22.4352 10.8377C21.811 11.3057 21.3295 11.9382 21.0447 12.6645C20.7598 13.3908 20.6829 14.182 20.8225 14.9496C20.9621 15.7171 21.3127 16.4306 21.835 17.0101C22.3573 17.5895 23.0307 18.0121 23.7797 18.2303V37.8853C23.7797 38.197 23.9035 38.4958 24.1239 38.7162C24.3442 38.9365 24.6431 39.0603 24.9547 39.0603C25.2663 39.0603 25.5652 38.9365 25.7856 38.7162C26.0059 38.4958 26.1297 38.197 26.1297 37.8853V18.2303C27.0015 17.9753 27.7673 17.4449 28.3125 16.7185C28.8578 15.9921 29.1532 15.1086 29.1547 14.2003ZM24.9547 16.0503C24.5888 16.0503 24.2311 15.9418 23.9269 15.7386C23.6227 15.5353 23.3856 15.2463 23.2455 14.9083C23.1055 14.5703 23.0689 14.1983 23.1403 13.8394C23.2116 13.4806 23.3878 13.1509 23.6466 12.8922C23.9053 12.6335 24.2349 12.4573 24.5938 12.3859C24.9527 12.3145 25.3246 12.3511 25.6627 12.4912C26.0007 12.6312 26.2897 12.8683 26.4929 13.1725C26.6962 13.4768 26.8047 13.8344 26.8047 14.2003C26.8049 14.4434 26.7571 14.684 26.6642 14.9086C26.5713 15.1332 26.435 15.3372 26.2632 15.5091C26.0914 15.681 25.8874 15.8174 25.6629 15.9104C25.4384 16.0035 25.1977 16.0503 24.9547 16.0503Z" fill="#6490B3"/>
<path d="M35.8636 16.1671C34.85 16.1684 33.871 16.5359 33.1068 17.2018C32.3426 17.8677 31.8447 18.7872 31.7046 19.7911H30.5356C30.1314 19.7741 29.7307 19.8715 29.3793 20.0721C29.028 20.2727 28.7404 20.5684 28.5496 20.9251C28.286 21.4873 28.1612 22.1046 28.1856 22.7251V38.8251C28.1856 39.1367 28.3094 39.4356 28.5298 39.6559C28.7501 39.8763 29.049 40.0001 29.3606 40.0001C29.6722 40.0001 29.9711 39.8763 30.1915 39.6559C30.4118 39.4356 30.5356 39.1367 30.5356 38.8251V22.7251C30.5297 22.5283 30.5454 22.3314 30.5826 22.1381H32.0626C32.3807 22.8207 32.8765 23.4053 33.4981 23.8305C34.1197 24.2558 34.8443 24.506 35.5958 24.5551C36.3473 24.6042 37.0982 24.4503 37.7699 24.1096C38.4415 23.7688 39.0092 23.2537 39.4134 22.6182C39.8176 21.9828 40.0435 21.2503 40.0675 20.4975C40.0914 19.7448 39.9125 18.9994 39.5494 18.3396C39.1864 17.6797 38.6526 17.1296 38.004 16.7469C37.3554 16.3641 36.6158 16.1628 35.8626 16.1641L35.8636 16.1671ZM35.8636 22.2181C35.4977 22.2181 35.1401 22.1096 34.8358 21.9063C34.5316 21.703 34.2945 21.4141 34.1544 21.076C34.0144 20.738 33.9778 20.366 34.0492 20.0071C34.1206 19.6483 34.2967 19.3187 34.5555 19.0599C34.8142 18.8012 35.1438 18.625 35.5027 18.5536C35.8616 18.4822 36.2335 18.5189 36.5716 18.6589C36.9096 18.7989 37.1986 19.036 37.4018 19.3403C37.6051 19.6445 37.7136 20.0022 37.7136 20.3681C37.7136 20.611 37.6658 20.8516 37.5728 21.076C37.4798 21.3005 37.3436 21.5044 37.1718 21.6762C37 21.848 36.796 21.9843 36.5716 22.0772C36.3471 22.1702 36.1066 22.2181 35.8636 22.2181Z" fill="#6490B3"/>
<path d="M18.7867 19.792H18.2867C18.1467 18.7882 17.6489 17.8689 16.8849 17.203C16.1209 16.5371 15.1421 16.1696 14.1287 16.168C13.0154 16.1698 11.9482 16.6129 11.1609 17.4002C10.3737 18.1874 9.93056 19.2546 9.92871 20.368C9.93056 21.4813 10.3737 22.5485 11.1609 23.3358C11.9482 24.123 13.0154 24.5661 14.1287 24.568C14.9283 24.5674 15.7111 24.3388 16.3854 23.9091C17.0596 23.4795 17.5974 22.8664 17.9357 22.142H18.7877C18.9432 22.1425 19.0922 22.2045 19.2022 22.3145C19.3122 22.4245 19.3742 22.5734 19.3747 22.729V38.829C19.3755 39.1404 19.4996 39.4388 19.7197 39.659C19.9399 39.8791 20.2383 40.0032 20.5497 40.004C20.7046 40.0041 20.8579 39.9737 21.001 39.9145C21.1442 39.8553 21.2742 39.7685 21.3837 39.659C21.4932 39.5494 21.58 39.4194 21.6392 39.2763C21.6984 39.1332 21.7288 38.9798 21.7287 38.825V22.725C21.7274 21.9459 21.4167 21.1993 20.865 20.6493C20.3133 20.0993 19.5657 19.7909 18.7867 19.792ZM14.1287 22.218C13.6381 22.218 13.1675 22.0231 12.8206 21.6761C12.4736 21.3292 12.2787 20.8586 12.2787 20.368C12.2787 19.8773 12.4736 19.4068 12.8206 19.0598C13.1675 18.7129 13.6381 18.518 14.1287 18.518C14.6194 18.518 15.0899 18.7129 15.4369 19.0598C15.7838 19.4068 15.9787 19.8773 15.9787 20.368C15.9788 20.611 15.9311 20.8517 15.8382 21.0762C15.7453 21.3008 15.609 21.5049 15.4372 21.6768C15.2654 21.8487 15.0614 21.985 14.8369 22.078C14.6124 22.1711 14.3717 22.218 14.1287 22.218Z" fill="#6490B3"/>
</svg>
