<svg width="50" height="50" viewBox="0 0 50 50" fill="none" xmlns="http://www.w3.org/2000/svg">
<path opacity="0.1" d="M42 0H8C3.58172 0 0 3.58172 0 8V42C0 46.4183 3.58172 50 8 50H42C46.4183 50 50 46.4183 50 42V8C50 3.58172 46.4183 0 42 0Z" fill="#EA72A2"/>
<path d="M32.5 34H19.5V35H32.5V37.5C32.5 37.8978 32.342 38.2794 32.0607 38.5607C31.7794 38.842 31.3978 39 31 39H19C18.6022 39 18.2206 38.842 17.9393 38.5607C17.658 38.2794 17.5 37.8978 17.5 37.5V30.994H16.5V37.5C16.5 38.163 16.7634 38.7989 17.2322 39.2678C17.7011 39.7366 18.337 40 19 40H31C31.663 40 32.2989 39.7366 32.7678 39.2678C33.2366 38.7989 33.5 38.163 33.5 37.5V30.994H32.5V34ZM17.5 15H30.5V14H17.5V12.5C17.5 12.1022 17.658 11.7206 17.9393 11.4393C18.2206 11.158 18.6022 11 19 11H31C31.3978 11 31.7794 11.158 32.0607 11.4393C32.342 11.7206 32.5 12.1022 32.5 12.5V19.97H33.5V12.5C33.5 11.837 33.2366 11.2011 32.7678 10.7322C32.2989 10.2634 31.663 10 31 10H19C18.337 10 17.7011 10.2634 17.2322 10.7322C16.7634 11.2011 16.5 11.837 16.5 12.5V19.97H17.5V15Z" fill="#EA72A2"/>
<path d="M25.5 36.5H24.5V37.5H25.5V36.5Z" fill="#EA72A2"/>
<path d="M22 12H21V13H22V12Z" fill="#EA72A2"/>
<path d="M24 12H23V13H24V12Z" fill="#EA72A2"/>
<path d="M18.5 16.5V18.5H19.5V17H21V16H19C18.8674 16 18.7402 16.0527 18.6464 16.1464C18.5527 16.2402 18.5 16.3674 18.5 16.5Z" fill="#EA72A2"/>
<path d="M31.4976 21H26.9976V20H25.9976V19H27.9976C28.2629 19 28.5172 18.8946 28.7048 18.7071C28.8923 18.5196 28.9976 18.2652 28.9976 18V16.5H27.9976V18H25.9976C25.7324 18 25.4781 18.1054 25.2905 18.2929C25.103 18.4804 24.9976 18.7348 24.9976 19V20H23.9976V21H18.4976C17.6727 21.0004 16.8638 21.2276 16.1593 21.6567C15.4548 22.0857 14.8818 22.7002 14.5029 23.4329C14.1239 24.1656 13.9537 24.9884 14.0108 25.8113C14.0679 26.6342 14.35 27.4256 14.8264 28.099C15.3029 28.7724 15.9552 29.3019 16.7122 29.6296C17.4692 29.9574 18.3018 30.0707 19.1188 29.9572C19.9359 29.8438 20.706 29.508 21.3451 28.9864C21.9842 28.4649 22.4677 27.7777 22.7426 27H27.2526C27.5276 27.7777 28.0111 28.4649 28.6502 28.9864C29.2892 29.508 30.0594 29.8438 30.8765 29.9572C31.6935 30.0707 32.526 29.9574 33.283 29.6296C34.04 29.3019 34.6924 28.7724 35.1688 28.099C35.6453 27.4256 35.9274 26.6342 35.9845 25.8113C36.0416 24.9884 35.8713 24.1656 35.4924 23.4329C35.1135 22.7002 34.5405 22.0857 33.836 21.6567C33.1314 21.2276 32.3225 21.0004 31.4976 21ZM31.4976 29C30.7213 29.0005 29.9669 28.7428 29.353 28.2676C28.7392 27.7924 28.3007 27.1267 28.1066 26.375C28.0789 26.2677 28.0164 26.1726 27.9288 26.1048C27.8411 26.0369 27.7335 26 27.6226 26H22.3726C22.2618 26 22.1541 26.0369 22.0665 26.1048C21.9789 26.1726 21.9163 26.2677 21.8886 26.375C21.725 27.0087 21.387 27.5839 20.9129 28.0352C20.4388 28.4864 19.8476 28.7957 19.2066 28.9279C18.5655 29.0601 17.9003 29.0098 17.2863 28.7829C16.6724 28.556 16.1344 28.1615 15.7334 27.6441C15.3325 27.1268 15.0846 26.5074 15.018 25.8563C14.9513 25.2052 15.0686 24.5484 15.3565 23.9606C15.6444 23.3728 16.0913 22.8775 16.6466 22.5309C17.2018 22.1843 17.8431 22.0004 18.4976 22H31.4976C32.4259 22 33.3161 22.3687 33.9725 23.0251C34.6289 23.6815 34.9976 24.5717 34.9976 25.5C34.9976 26.4283 34.6289 27.3185 33.9725 27.9749C33.3161 28.6313 32.4259 29 31.4976 29Z" fill="#EA72A2"/>
<path d="M19 24H18V25H17V26H18V27H19V26H20V25H19V24Z" fill="#EA72A2"/>
<path d="M31.5 24H30.5V25H31.5V24Z" fill="#EA72A2"/>
<path d="M33.5 25H32.5V26H33.5V25Z" fill="#EA72A2"/>
<path d="M32 26H31V27H32V26Z" fill="#EA72A2"/>
<path d="M30 25H29V26H30V25Z" fill="#EA72A2"/>
<path d="M27 24H26V25H27V24Z" fill="#EA72A2"/>
<path d="M24.5 24H23.5V25H24.5V24Z" fill="#EA72A2"/>
</svg>
