<svg width="17" height="17" viewBox="0 0 17 17" fill="none" xmlns="http://www.w3.org/2000/svg">
<path d="M8.5 8.16683C8.05797 8.16683 7.63405 7.99123 7.32149 7.67867C7.00893 7.36611 6.83334 6.94219 6.83334 6.50016C6.83334 6.05814 7.00893 5.63421 7.32149 5.32165C7.63405 5.00909 8.05797 4.8335 8.5 4.8335C8.94203 4.8335 9.36595 5.00909 9.67851 5.32165C9.99107 5.63421 10.1667 6.05814 10.1667 6.50016C10.1667 6.71903 10.1236 6.93576 10.0398 7.13797C9.95604 7.34018 9.83328 7.52391 9.67851 7.67867C9.52375 7.83344 9.34002 7.9562 9.13781 8.03996C8.9356 8.12372 8.71887 8.16683 8.5 8.16683ZM8.5 1.8335C7.26233 1.8335 6.07534 2.32516 5.20017 3.20033C4.325 4.0755 3.83334 5.26249 3.83334 6.50016C3.83334 10.0002 8.5 15.1668 8.5 15.1668C8.5 15.1668 13.1667 10.0002 13.1667 6.50016C13.1667 5.26249 12.675 4.0755 11.7998 3.20033C10.9247 2.32516 9.73768 1.8335 8.5 1.8335Z" fill="#2F83C5"/>
</svg>
