<svg width="32" height="32" viewBox="0 0 32 32" fill="none" xmlns="http://www.w3.org/2000/svg">
<g clip-path="url(#clip0_46_2497)">
<path d="M11.4746 13.4837C11.4757 13.2454 11.4179 13.0093 11.3047 12.7889C11.1914 12.5685 11.0249 12.3681 10.8147 12.1993C10.6044 12.0305 10.3546 11.8965 10.0795 11.8052C9.80439 11.7138 9.50945 11.6667 9.21159 11.6667C8.91372 11.6667 8.61878 11.7138 8.34369 11.8052C8.0686 11.8965 7.81876 12.0305 7.60851 12.1993C7.39826 12.3681 7.23174 12.5685 7.11848 12.7889C7.00523 13.0093 6.94747 13.2454 6.94853 13.4837C6.94747 13.722 7.00523 13.958 7.11848 14.1784C7.23174 14.3988 7.39826 14.5992 7.60851 14.768C7.81876 14.9368 8.0686 15.0707 8.34369 15.1621C8.61878 15.2535 8.91372 15.3005 9.21159 15.3005C9.50945 15.3005 9.80439 15.2535 10.0795 15.1621C10.3546 15.0707 10.6044 14.9368 10.8147 14.768C11.0249 14.5992 11.1914 14.3988 11.3047 14.1784C11.4179 13.958 11.4757 13.722 11.4746 13.4837Z" fill="white"/>
<path d="M27.485 24.4973V21.2646H4.3558V24.4973H2.16241V12.007C2.16241 11.7743 2.27796 11.5511 2.48363 11.3866C2.6893 11.2221 2.96825 11.1296 3.25911 11.1296C3.54997 11.1296 3.82892 11.2221 4.03459 11.3866C4.24026 11.5511 4.3558 11.7743 4.3558 12.007V19.5084H29.6804V24.4973H27.485Z" fill="white"/>
<path d="M12.4424 12.4318V15.7556H8.28798C7.99688 15.7556 7.71769 15.8481 7.51185 16.0128C7.30601 16.1775 7.19037 16.4008 7.19037 16.6337C7.19037 16.8666 7.30601 17.0899 7.51185 17.2546C7.71769 17.4193 7.99688 17.5118 8.28798 17.5118H13.2911C13.4679 17.5118 13.6431 17.4839 13.8065 17.4298C13.9699 17.3756 14.1183 17.2963 14.2434 17.1962C14.3684 17.0962 14.4676 16.9774 14.5353 16.8466C14.603 16.7159 14.6378 16.5759 14.6378 16.4344V12.4318C14.6378 12.1989 14.5222 11.9756 14.3163 11.8109C14.1105 11.6462 13.8313 11.5537 13.5401 11.5537C13.249 11.5537 12.9698 11.6462 12.7639 11.8109C12.5581 11.9756 12.4424 12.1989 12.4424 12.4318Z" fill="white"/>
<path d="M23.1922 13.4753H15.6951V17.5118H25.8857V15.6302C25.8857 15.3472 25.8161 15.067 25.6807 14.8056C25.5453 14.5441 25.3469 14.3065 25.0968 14.1064C24.8467 13.9063 24.5498 13.7476 24.223 13.6393C23.8962 13.5311 23.5459 13.4753 23.1922 13.4753Z" fill="white"/>
<path d="M1.33316 7.03032L2.32289 8.5978L15.9997 3.07036L29.6766 8.5978L30.6666 7.03032L15.9997 1.10278L1.33316 7.03032Z" fill="white"/>
</g>
<defs>
<clipPath id="clip0_46_2497">
<rect width="32" height="32" fill="white"/>
</clipPath>
</defs>
</svg>
