<svg width="17" height="17" viewBox="0 0 17 17" fill="none" xmlns="http://www.w3.org/2000/svg">
<path d="M13.8 14.5C12.4111 14.5 11.0389 14.1973 9.68333 13.592C8.32778 12.9867 7.09444 12.1282 5.98333 11.0167C4.87222 9.90511 4.014 8.67178 3.40867 7.31667C2.80333 5.96156 2.50044 4.58933 2.5 3.2C2.5 3 2.56667 2.83333 2.7 2.7C2.83333 2.56667 3 2.5 3.2 2.5H5.9C6.05556 2.5 6.19444 2.55289 6.31667 2.65867C6.43889 2.76444 6.51111 2.88933 6.53333 3.03333L6.96667 5.36667C6.98889 5.54444 6.98333 5.69444 6.95 5.81667C6.91667 5.93889 6.85556 6.04444 6.76667 6.13333L5.15 7.76667C5.37222 8.17778 5.636 8.57489 5.94133 8.958C6.24667 9.34111 6.58289 9.71067 6.95 10.0667C7.29444 10.4111 7.65556 10.7307 8.03333 11.0253C8.41111 11.32 8.81111 11.5893 9.23333 11.8333L10.8 10.2667C10.9 10.1667 11.0307 10.0918 11.192 10.042C11.3533 9.99222 11.5116 9.97822 11.6667 10L13.9667 10.4667C14.1222 10.5111 14.25 10.5918 14.35 10.7087C14.45 10.8256 14.5 10.956 14.5 11.1V13.8C14.5 14 14.4333 14.1667 14.3 14.3C14.1667 14.4333 14 14.5 13.8 14.5Z" fill="#2F83C5"/>
</svg>
