<svg width="50" height="50" viewBox="0 0 50 50" fill="none" xmlns="http://www.w3.org/2000/svg">
<path opacity="0.1" d="M42 0H8C3.58172 0 0 3.58172 0 8V42C0 46.4183 3.58172 50 8 50H42C46.4183 50 50 46.4183 50 42V8C50 3.58172 46.4183 0 42 0Z" fill="#DE604B"/>
<path d="M36.489 10.0039C36.0263 10.003 35.568 10.0938 35.1406 10.2711C34.7132 10.4484 34.3252 10.7087 33.999 11.0369L28.211 16.8149L14.153 14.3149L10.837 17.6309L23.22 21.8129L16.089 28.9769L13.317 28.3949L10 31.7119L15.835 34.1649L18.289 40.0039L21.61 36.6879L21.042 33.9389L28.207 26.7739L32.417 39.1329L35.733 35.8169L33.246 21.7349L38.971 16.0099C39.4618 15.5179 39.796 14.8916 39.9315 14.21C40.0669 13.5283 39.9976 12.8218 39.7321 12.1795C39.4667 11.5372 39.0171 10.9879 38.44 10.6007C37.8628 10.2135 37.184 10.0059 36.489 10.0039Z" stroke="#DE604B" stroke-width="2" stroke-linecap="round" stroke-linejoin="round"/>
</svg>
