<svg width="36" height="35" viewBox="0 0 36 35" fill="none" xmlns="http://www.w3.org/2000/svg">
<path d="M27.1874 23.7271C25.5123 23.6882 24.0671 23.1457 22.8518 22.0996C21.6365 21.0535 20.9054 19.651 20.6584 17.8923H16.9659C16.7589 17.8923 16.5853 17.8223 16.4453 17.6823C16.3053 17.5423 16.2358 17.3687 16.2368 17.1617C16.2378 16.9546 16.3073 16.7815 16.4453 16.6425C16.5834 16.5035 16.7569 16.434 16.9659 16.434H20.6584C20.743 15.6562 21.0148 14.8419 21.4737 13.9913C21.9325 13.1406 22.547 12.478 23.317 12.0035H13.5432C13.3362 12.0035 13.1626 11.9335 13.0226 11.7935C12.8836 11.6535 12.8141 11.48 12.8141 11.2729C12.8141 11.0658 12.8836 10.8928 13.0226 10.7538C13.1616 10.6147 13.3352 10.5452 13.5432 10.5452H23.9528L21.6487 4.235C21.5728 4.04736 21.4605 3.9025 21.3118 3.80042C21.1621 3.69736 20.9934 3.64583 20.8057 3.64583H17.542C17.3349 3.64583 17.1618 3.57583 17.0228 3.43583C16.8838 3.29583 16.8138 3.12229 16.8128 2.91521C16.8118 2.70812 16.8818 2.53507 17.0228 2.39604C17.1638 2.25701 17.3368 2.1875 17.542 2.1875H20.8057C21.3152 2.1875 21.7653 2.32799 22.1562 2.60896C22.548 2.88993 22.8318 3.26278 23.0078 3.7275L25.5089 10.5452H27.1889C29.0565 10.5452 30.6169 11.1815 31.8701 12.4542C33.1243 13.7258 33.7514 15.296 33.7514 17.1646C33.7514 18.9797 33.1116 20.527 31.8322 21.8065C30.5528 23.0859 29.005 23.7256 27.1889 23.7256M27.1932 22.2673C28.6117 22.2673 29.8163 21.7715 30.807 20.7798C31.7987 19.7862 32.2945 18.5806 32.2945 17.1631C32.2945 15.7048 31.8084 14.4803 30.8362 13.4896C29.8639 12.4989 28.6487 12.0031 27.1903 12.0021C26.9589 12.0021 26.7484 12.0215 26.5589 12.0604C26.3693 12.0974 26.1967 12.1343 26.0412 12.1712L27.2895 15.5283C27.3614 15.7121 27.3556 15.8997 27.272 16.0913C27.1884 16.2828 27.0523 16.4092 26.8637 16.4704C26.6809 16.5365 26.4966 16.5278 26.3109 16.4442C26.1262 16.3615 25.9964 16.2254 25.9216 16.0358L24.7374 12.6963C23.9149 13.1279 23.2674 13.7662 22.7949 14.611C22.3224 15.4559 22.0857 16.3066 22.0847 17.1631C22.0847 18.5816 22.5815 19.7872 23.5751 20.7798C24.5678 21.7715 25.7748 22.2673 27.1932 22.2673ZM11.7684 32.8708C10.7564 32.8708 9.89497 32.516 9.18428 31.8062C8.47456 31.0975 8.1197 30.2371 8.1197 29.225C8.1197 29.0743 8.12845 28.9431 8.14595 28.8313C8.16539 28.7194 8.19359 28.5887 8.23053 28.439H3.01407C2.80796 28.439 2.63491 28.369 2.49491 28.229C2.35491 28.089 2.28442 27.9154 2.28345 27.7083V22.6042C2.28345 22.3971 2.35345 22.224 2.49345 22.085C2.63345 21.946 2.8065 21.876 3.01261 21.875H5.20011V16.7708H3.01261C2.8065 16.7708 2.63345 16.7008 2.49345 16.5608C2.35345 16.4208 2.28345 16.2473 2.28345 16.0402C2.28345 15.8331 2.35345 15.6601 2.49345 15.521C2.63345 15.382 2.8065 15.3125 3.01261 15.3125H10.6718C10.8857 15.3125 11.0855 15.3635 11.2712 15.4656C11.4569 15.5677 11.5983 15.7101 11.6955 15.8929L15.1562 21.875H18.1574C18.8049 21.875 19.3591 22.1059 19.8199 22.5677C20.2807 23.0295 20.5116 23.5837 20.5126 24.2302V26.0823C20.5126 26.7298 20.2822 27.284 19.8214 27.7448C19.3605 28.2056 18.8059 28.4365 18.1574 28.4375H15.2962C15.3341 28.5872 15.3623 28.7185 15.3807 28.8313C15.4002 28.9421 15.4099 29.0724 15.4099 29.2221C15.4099 30.2351 15.055 31.096 14.3453 31.8048C13.6375 32.5145 12.7781 32.8694 11.767 32.8694M6.65845 21.875H13.4762L10.5434 16.7708H6.65845V21.875ZM11.7626 31.411C12.3634 31.411 12.8782 31.1962 13.307 30.7665C13.7357 30.3377 13.9501 29.8229 13.9501 29.2221C13.9501 28.6213 13.7357 28.1069 13.307 27.6792C12.8782 27.2514 12.3634 27.0365 11.7626 27.0346C11.1618 27.0326 10.6475 27.2475 10.2197 27.6792C9.79192 28.1108 9.57706 28.6251 9.57511 29.2221C9.57317 29.819 9.78803 30.3338 10.2197 30.7665C10.6514 31.1991 11.1657 31.4149 11.7626 31.411Z" fill="white"/>
</svg>
