<svg width="22" height="27" viewBox="0 0 22 27" fill="none" xmlns="http://www.w3.org/2000/svg">
<g clip-path="url(#clip0_46_2452)">
<path d="M0.875 3.375C0.875 1.51348 2.37774 0 4.22606 0H12.0539C12.9441 0 13.7975 0.35332 14.4259 0.986133L20.0022 6.60762C20.6306 7.24043 20.9814 8.1 20.9814 8.99648V23.625C20.9814 25.4865 19.4786 27 17.6303 27H4.22606C2.37774 27 0.875 25.4865 0.875 23.625V18.5625H4.03233L6.58752 21.8689C6.85455 22.217 7.28391 22.3963 7.7185 22.3488C8.15309 22.3014 8.53009 22.0271 8.71858 21.6316L10.9648 16.8223L11.4832 17.8664C11.6979 18.2936 12.1325 18.5678 12.609 18.5678H16.3789C17.0753 18.5678 17.6356 18.0035 17.6356 17.3021C17.6356 16.6008 17.0753 16.0365 16.3789 16.0365H13.3839L12.0539 13.3629C11.8393 12.9305 11.3942 12.6562 10.9125 12.6615C10.4308 12.6668 9.99618 12.9516 9.79197 13.3893L7.31533 18.6943L5.63979 16.527C5.39894 16.2105 5.03241 16.0312 4.64495 16.0312H0.875V3.375ZM11.766 3.08496V8.01562C11.766 8.71699 12.3262 9.28125 13.0226 9.28125H17.9183L11.766 3.08496Z" fill="white"/>
</g>
<defs>
<clipPath id="clip0_46_2452">
<rect width="20.25" height="27" fill="white" transform="translate(0.875)"/>
</clipPath>
</defs>
</svg>
