<svg width="16" height="16" viewBox="0 0 16 16" fill="none" xmlns="http://www.w3.org/2000/svg">
<path d="M2.66667 13.3332C2.3 13.3332 1.98622 13.2027 1.72534 12.9418C1.46445 12.6809 1.33378 12.3669 1.33334 11.9998V3.99984C1.33334 3.63317 1.464 3.31939 1.72534 3.0585C1.98667 2.79761 2.30045 2.66695 2.66667 2.6665H13.3333C13.7 2.6665 14.014 2.79717 14.2753 3.0585C14.5367 3.31984 14.6671 3.63362 14.6667 3.99984V11.9998C14.6667 12.3665 14.5362 12.6805 14.2753 12.9418C14.0144 13.2032 13.7004 13.3336 13.3333 13.3332H2.66667ZM8 8.6665L13.3333 5.33317V3.99984L8 7.33317L2.66667 3.99984V5.33317L8 8.6665Z" fill="#2F83C5"/>
</svg>
