<svg width="50" height="50" viewBox="0 0 50 50" fill="none" xmlns="http://www.w3.org/2000/svg">
<path opacity="0.1" d="M42 0H8C3.58172 0 0 3.58172 0 8V42C0 46.4183 3.58172 50 8 50H42C46.4183 50 50 46.4183 50 42V8C50 3.58172 46.4183 0 42 0Z" fill="#5AC4F8"/>
<path d="M25 24.6875C25.2486 24.6875 25.4871 24.7863 25.6629 24.9621C25.8387 25.1379 25.9375 25.3764 25.9375 25.625V26.5625H26.875C27.1236 26.5625 27.3621 26.6613 27.5379 26.8371C27.7137 27.0129 27.8125 27.2514 27.8125 27.5C27.8125 27.7486 27.7137 27.9871 27.5379 28.1629C27.3621 28.3387 27.1236 28.4375 26.875 28.4375H25.9375V29.375C25.9375 29.6236 25.8387 29.8621 25.6629 30.0379C25.4871 30.2137 25.2486 30.3125 25 30.3125C24.7514 30.3125 24.5129 30.2137 24.3371 30.0379C24.1613 29.8621 24.0625 29.6236 24.0625 29.375V28.4375H23.125C22.8764 28.4375 22.6379 28.3387 22.4621 28.1629C22.2863 27.9871 22.1875 27.7486 22.1875 27.5C22.1875 27.2514 22.2863 27.0129 22.4621 26.8371C22.6379 26.6613 22.8764 26.5625 23.125 26.5625H24.0625V25.625C24.0625 25.3764 24.1613 25.1379 24.3371 24.9621C24.5129 24.7863 24.7514 24.6875 25 24.6875Z" fill="#5AC4F8"/>
<path fill-rule="evenodd" clip-rule="evenodd" d="M25 21.5625C23.4253 21.5625 21.9151 22.1881 20.8016 23.3016C19.6881 24.4151 19.0625 25.9253 19.0625 27.5C19.0625 29.0747 19.6881 30.5849 20.8016 31.6984C21.9151 32.8119 23.4253 33.4375 25 33.4375C26.5747 33.4375 28.0849 32.8119 29.1984 31.6984C30.3119 30.5849 30.9375 29.0747 30.9375 27.5C30.9375 25.9253 30.3119 24.4151 29.1984 23.3016C28.0849 22.1881 26.5747 21.5625 25 21.5625ZM20.9375 27.5C20.9375 26.4226 21.3655 25.3892 22.1274 24.6274C22.8892 23.8655 23.9226 23.4375 25 23.4375C26.0774 23.4375 27.1108 23.8655 27.8726 24.6274C28.6345 25.3892 29.0625 26.4226 29.0625 27.5C29.0625 28.5774 28.6345 29.6108 27.8726 30.3726C27.1108 31.1345 26.0774 31.5625 25 31.5625C23.9226 31.5625 22.8892 31.1345 22.1274 30.3726C21.3655 29.6108 20.9375 28.5774 20.9375 27.5Z" fill="#5AC4F8"/>
<path fill-rule="evenodd" clip-rule="evenodd" d="M24.935 11.5625C23.8112 11.5625 22.875 11.5625 22.1325 11.6625C21.3475 11.7675 20.6388 12 20.07 12.5688C19.5 13.1388 19.2675 13.8475 19.1625 14.6312C19.0875 15.1812 19.0687 15.8363 19.0637 16.5938C18.2537 16.62 17.5312 16.6687 16.8888 16.7537C15.4238 16.9513 14.2375 17.3662 13.3012 18.3012C12.3663 19.2375 11.9513 20.4237 11.7537 21.8888C11.5625 23.3137 11.5625 25.1325 11.5625 27.43V27.57C11.5625 29.8675 11.5625 31.6875 11.7537 33.1112C11.9513 34.5763 12.3663 35.7625 13.3012 36.6987C14.2375 37.6337 15.4238 38.0487 16.8888 38.2463C18.3138 38.4375 20.1325 38.4375 22.43 38.4375H27.57C29.8675 38.4375 31.6875 38.4375 33.1112 38.2463C34.5763 38.0487 35.7625 37.6337 36.6987 36.6987C37.6337 35.7625 38.0487 34.5763 38.2463 33.1112C38.4375 31.6863 38.4375 29.8675 38.4375 27.57V27.43C38.4375 25.1325 38.4375 23.3125 38.2463 21.8888C38.0487 20.4237 37.6337 19.2375 36.6987 18.3012C35.7625 17.3662 34.5763 16.9513 33.1112 16.7537C32.3893 16.6653 31.6634 16.6119 30.9363 16.5938C30.9313 15.8363 30.9112 15.1812 30.8375 14.6312C30.7325 13.8475 30.5 13.1388 29.93 12.5688C29.36 11.9988 28.6525 11.7688 27.8675 11.6625C27.125 11.5625 26.1875 11.5625 25.065 11.5625H24.935ZM29.06 16.565C29.055 15.8525 29.0375 15.315 28.98 14.8812C28.9013 14.305 28.7675 14.0575 28.605 13.895C28.4425 13.7325 28.195 13.5987 27.6175 13.52C27.015 13.44 26.205 13.4375 25 13.4375C23.795 13.4375 22.985 13.44 22.3812 13.5212C21.805 13.5987 21.5575 13.7325 21.395 13.8963C21.2325 14.06 21.0988 14.305 21.02 14.8812C20.9625 15.3138 20.945 15.8512 20.94 16.565C21.4125 16.5625 21.9092 16.5617 22.43 16.5625H27.57C28.0908 16.5625 28.5875 16.5633 29.06 16.565ZM14.6275 19.6275C15.1562 19.0988 15.8812 18.7812 17.1388 18.6125C18.4237 18.44 20.1163 18.4375 22.5 18.4375H27.5C29.8837 18.4375 31.5775 18.44 32.8625 18.6125C34.1188 18.7812 34.8438 19.0988 35.3725 19.6275C35.9013 20.1562 36.2188 20.8813 36.3875 22.1388C36.56 23.4225 36.5625 25.1163 36.5625 27.5C36.5625 29.8837 36.56 31.5775 36.3875 32.8625C36.2188 34.1188 35.9013 34.8438 35.3725 35.3725C34.8438 35.9013 34.1187 36.2188 32.8612 36.3875C31.5775 36.56 29.8837 36.5625 27.5 36.5625H22.5C20.1163 36.5625 18.4237 36.56 17.1375 36.3875C15.8812 36.2188 15.1562 35.9013 14.6275 35.3725C14.0987 34.8438 13.7813 34.1187 13.6125 32.8612C13.44 31.5775 13.4375 29.8837 13.4375 27.5C13.4375 25.1163 13.44 23.4237 13.6125 22.1375C13.7813 20.8813 14.0987 20.1562 14.6275 19.6275Z" fill="#5AC4F8"/>
</svg>
