<svg width="22" height="25" viewBox="0 0 22 25" fill="none" xmlns="http://www.w3.org/2000/svg">
<g clip-path="url(#clip0_46_2514)">
<path d="M20.8639 22.0335C20.942 20.6577 20.7618 19.2795 20.3327 17.97L20.3545 18.0481C20.2941 17.8689 20.2462 16.6668 18.2566 15.8898C16.792 15.3179 14.8285 15.4168 13.3733 14.4252C13.3376 14.3195 13.3104 14.2112 13.292 14.1012L13.29 14.0856C14.7649 13.8061 16.1781 13.2653 17.4629 12.4887L17.4066 12.52C15.3108 11.9241 15.1566 8.5783 15.0097 6.51997C15.0097 5.93872 14.8941 5.38455 14.6848 4.87935L14.6952 4.90747L14.6639 4.78455L15.8889 0.0012207H5.51183L6.73267 4.78768L6.70142 4.90955C6.49071 5.42053 6.38378 5.96831 6.38683 6.52101C6.23892 8.62726 6.07225 11.9252 3.98996 12.521C5.23347 13.2707 6.59902 13.796 8.02433 14.0731L8.1035 14.0856C8.0785 14.221 8.04933 14.3346 8.01392 14.446L8.02017 14.4252C6.566 15.4168 4.6035 15.3158 3.13683 15.8898C1.14829 16.6668 1.10142 17.8689 1.041 18.0481C0.706624 19.0502 0.513916 20.2043 0.513916 21.4033C0.513916 21.6255 0.520513 21.8457 0.533708 22.0637L0.532666 22.0335C0.522249 22.4168 0.532666 22.995 1.67954 23.4981C5.07642 24.9866 10.6795 24.9981 10.7014 24.9981C13.8409 24.9797 16.9566 24.4527 19.9275 23.4377L19.7233 23.4981C20.867 22.995 20.8743 22.4168 20.867 22.0304L20.8639 22.0335ZM14.8983 0.768929L13.8827 4.76268H7.50454L6.48892 0.768929H14.8983Z" fill="white"/>
<path d="M9.09326 3.19048H10.2151V4.31444H11.1724V3.19048H12.2964V2.23527H11.1683V1.11548H10.211V2.23944H9.09326V3.19048Z" fill="white"/>
</g>
<defs>
<clipPath id="clip0_46_2514">
<rect width="20.8333" height="25" fill="white" transform="translate(0.516113)"/>
</clipPath>
</defs>
</svg>
